<svg xmlns="http://www.w3.org/2000/svg" viewBox="0 0 514.28 178.2"><defs><style>.cls-1{fill:#fff;}</style></defs><g id="Layer_2" data-name="Layer 2"><g id="Layer_1-2" data-name="Layer 1"><polygon class="cls-1" points="77.78 61.94 77.78 44.74 0 44.74 0 62.91 50.34 62.91 0 113.87 0 131.19 79.46 131.19 79.46 112.9 27.44 112.9 77.78 61.94"/><circle class="cls-1" cx="109.69" cy="14.8" r="14.8"/><rect class="cls-1" x="98.58" y="44.74" width="22.21" height="86.45"/><path class="cls-1" d="M230.37,44.33a37.72,37.72,0,0,0-27.2,11.59,37.79,37.79,0,0,0-65,26.23v49h21.22v-49a16.6,16.6,0,0,1,33.19,0v49h21.22v-49a16.6,16.6,0,0,1,33.19,0v49h21.22v-49A37.86,37.86,0,0,0,230.37,44.33Z"/><path class="cls-1" d="M493.25,45V91.7a18.61,18.61,0,0,1-37.22,0V45H435V91.7a39.63,39.63,0,0,0,58.25,35v11.59a18.63,18.63,0,0,1-18.61,18.61H463.1v21h11.54a39.68,39.68,0,0,0,39.64-39.64V45Z"/><path class="cls-1" d="M407.24,91.05V0H385V91.05a39.63,39.63,0,0,0,39.58,39.59V108.42A17.39,17.39,0,0,1,407.24,91.05Z"/><path class="cls-1" d="M328,44.42a43.12,43.12,0,0,0-43.07,43.07c0,.31,0,.61,0,.92h-.13V178.2H307V125.09a43.06,43.06,0,1,0,21-80.67Zm0,64.14a21.11,21.11,0,0,1-21-19V88.41H307c0-.31,0-.61,0-.92A21.07,21.07,0,1,1,328,108.56Z"/></g></g></svg>